<?xml version="1.0" standalone="no"?><!DOCTYPE svg PUBLIC "-//W3C//DTD SVG 1.1//EN" "http://www.w3.org/Graphics/SVG/1.1/DTD/svg11.dtd"><svg t="1637427048470" class="icon" viewBox="0 0 1024 1024" version="1.1" xmlns="http://www.w3.org/2000/svg" p-id="12537" xmlns:xlink="http://www.w3.org/1999/xlink" width="200" height="200"><defs><style type="text/css"></style></defs><path d="M0 0h1024v1024H0z" fill="#FFFFFF" fill-opacity=".01" p-id="12538"></path><path d="M541.110857 58.733714l327.899429 34.157715a36.571429 36.571429 0 0 1 32.621714 32.548571l34.157714 327.899429a36.571429 36.571429 0 0 1-10.532571 29.622857L458.898286 949.394286a36.571429 36.571429 0 0 1-51.712 0L45.129143 587.337143a36.571429 36.571429 0 0 1 0-51.712L511.488 69.193143a36.571429 36.571429 0 0 1 29.622857-10.459429z m99.108572 192.073143a73.142857 73.142857 0 1 0 103.497142 103.424A73.142857 73.142857 0 0 0 640.219429 250.88z" fill="#576679" p-id="12539"></path></svg>